<svg width="512" height="512" viewBox="0 0 512 512" xmlns="http://www.w3.org/2000/svg">
  <!-- 背景 -->
  <rect width="512" height="512" rx="80" fill="#1E3A8A"/>
  
  <!-- 云朵组 -->
  <ellipse cx="180" cy="160" rx="60" ry="35" fill="#F3F4F6"/>
  <ellipse cx="240" cy="145" rx="50" ry="30" fill="#FFFFFF"/>
  <ellipse cx="300" cy="160" rx="55" ry="32" fill="#F3F4F6"/>
  
  <!-- 主闪电 -->
  <path d="M220 180 L260 180 L240 230 L280 230 L220 300 L250 250 L220 250 Z" fill="#FCD34D" stroke="#F59E0B" stroke-width="4"/>
  
  <!-- 雨滴群 -->
  <ellipse cx="160" cy="240" rx="8" ry="20" fill="#3B82F6"/>
  <ellipse cx="190" cy="270" rx="8" ry="20" fill="#60A5FA"/>
  <ellipse cx="320" cy="250" rx="8" ry="20" fill="#3B82F6"/>
  <ellipse cx="350" cy="280" rx="8" ry="20" fill="#60A5FA"/>
  <ellipse cx="140" cy="290" rx="6" ry="15" fill="#93C5FD"/>
  <ellipse cx="370" cy="310" rx="6" ry="15" fill="#93C5FD"/>
  
  <!-- 新闻报纸 -->
  <rect x="120" y="320" width="272" height="160" rx="12" fill="#FFFFFF" stroke="#D1D5DB" stroke-width="4"/>
  
  <!-- 报纸标题 -->
  <rect x="140" y="345" width="232" height="12" fill="#1F2937"/>
  <rect x="140" y="365" width="180" height="8" fill="#374151"/>
  <rect x="140" y="380" width="200" height="8" fill="#374151"/>
  
  <!-- 报纸内容列 -->
  <rect x="140" y="405" width="100" height="6" fill="#6B7280"/>
  <rect x="140" y="418" width="110" height="6" fill="#6B7280"/>
  <rect x="140" y="431" width="95" height="6" fill="#6B7280"/>
  <rect x="140" y="444" width="105" height="6" fill="#6B7280"/>
  <rect x="140" y="457" width="90" height="6" fill="#6B7280"/>
  
  <rect x="270" y="405" width="102" height="6" fill="#6B7280"/>
  <rect x="270" y="418" width="85" height="6" fill="#6B7280"/>
  <rect x="270" y="431" width="102" height="6" fill="#6B7280"/>
  <rect x="270" y="444" width="95" height="6" fill="#6B7280"/>
  <rect x="270" y="457" width="88" height="6" fill="#6B7280"/>
  
  <!-- 装饰性元素 -->
  <circle cx="256" cy="100" r="8" fill="#FCD34D" opacity="0.7"/>
  <circle cx="400" cy="120" r="6" fill="#60A5FA" opacity="0.6"/>
  <circle cx="112" cy="140" r="5" fill="#F87171" opacity="0.5"/>
</svg>